<svg xmlns="http://www.w3.org/2000/svg" version="1.1" xmlns:xlink="http://www.w3.org/1999/xlink" xmlns:svgjs="http://svgjs.dev/svgjs" viewBox="0 0 2400 800"><defs><linearGradient x1="50%" y1="0%" x2="50%" y2="100%" id="sssurf-grad"><stop stop-color="hsl(162, 100%, 58%)" stop-opacity="1" offset="0%"></stop><stop stop-color="hsl(270, 73%, 53%)" stop-opacity="1" offset="100%"></stop></linearGradient></defs><g fill="url(#sssurf-grad)" transform="matrix(1,0,0,1,10.8282470703125,223.00676250457764)"><path d="M-10,10C33.75,15.833333333333334,114.58333333333334,45.5,200,38C285.41666666666663,30.5,316.66666666666663,-24.958333333333332,400,-26C483.33333333333337,-27.041666666666668,516.6666666666666,32.375,600,33C683.3333333333334,33.625,716.6666666666666,-26.333333333333332,800,-23C883.3333333333334,-19.666666666666668,916.6666666666666,46.708333333333336,1000,49C1083.3333333333333,51.291666666666664,1116.6666666666667,-9.916666666666666,1200,-12C1283.3333333333333,-14.083333333333334,1316.6666666666667,39,1400,39C1483.3333333333333,39,1516.6666666666667,-14.916666666666668,1600,-12C1683.3333333333333,-9.083333333333332,1716.6666666666667,51.541666666666664,1800,53C1883.3333333333333,54.458333333333336,1916.6666666666667,-2.083333333333333,2000,-5C2083.3333333333335,-7.916666666666667,2118.75,35.875,2200,39C2281.25,42.125,2296.25,-65.20833333333333,2390,10C2483.75,85.20833333333333,3252.0833333333335,214.58333333333331,2650,400C2047.9166666666665,585.4166666666667,156.25,795.8333333333334,-500,900" transform="matrix(1,0,0,1,0,35)" opacity="0.05"></path><path d="M-10,10C33.75,15.833333333333334,114.58333333333334,45.5,200,38C285.41666666666663,30.5,316.66666666666663,-24.958333333333332,400,-26C483.33333333333337,-27.041666666666668,516.6666666666666,32.375,600,33C683.3333333333334,33.625,716.6666666666666,-26.333333333333332,800,-23C883.3333333333334,-19.666666666666668,916.6666666666666,46.708333333333336,1000,49C1083.3333333333333,51.291666666666664,1116.6666666666667,-9.916666666666666,1200,-12C1283.3333333333333,-14.083333333333334,1316.6666666666667,39,1400,39C1483.3333333333333,39,1516.6666666666667,-14.916666666666668,1600,-12C1683.3333333333333,-9.083333333333332,1716.6666666666667,51.541666666666664,1800,53C1883.3333333333333,54.458333333333336,1916.6666666666667,-2.083333333333333,2000,-5C2083.3333333333335,-7.916666666666667,2118.75,35.875,2200,39C2281.25,42.125,2296.25,-65.20833333333333,2390,10C2483.75,85.20833333333333,3252.0833333333335,214.58333333333331,2650,400C2047.9166666666665,585.4166666666667,156.25,795.8333333333334,-500,900" transform="matrix(1,0,0,1,0,70)" opacity="0.21"></path><path d="M-10,10C33.75,15.833333333333334,114.58333333333334,45.5,200,38C285.41666666666663,30.5,316.66666666666663,-24.958333333333332,400,-26C483.33333333333337,-27.041666666666668,516.6666666666666,32.375,600,33C683.3333333333334,33.625,716.6666666666666,-26.333333333333332,800,-23C883.3333333333334,-19.666666666666668,916.6666666666666,46.708333333333336,1000,49C1083.3333333333333,51.291666666666664,1116.6666666666667,-9.916666666666666,1200,-12C1283.3333333333333,-14.083333333333334,1316.6666666666667,39,1400,39C1483.3333333333333,39,1516.6666666666667,-14.916666666666668,1600,-12C1683.3333333333333,-9.083333333333332,1716.6666666666667,51.541666666666664,1800,53C1883.3333333333333,54.458333333333336,1916.6666666666667,-2.083333333333333,2000,-5C2083.3333333333335,-7.916666666666667,2118.75,35.875,2200,39C2281.25,42.125,2296.25,-65.20833333333333,2390,10C2483.75,85.20833333333333,3252.0833333333335,214.58333333333331,2650,400C2047.9166666666665,585.4166666666667,156.25,795.8333333333334,-500,900" transform="matrix(1,0,0,1,0,105)" opacity="0.37"></path><path d="M-10,10C33.75,15.833333333333334,114.58333333333334,45.5,200,38C285.41666666666663,30.5,316.66666666666663,-24.958333333333332,400,-26C483.33333333333337,-27.041666666666668,516.6666666666666,32.375,600,33C683.3333333333334,33.625,716.6666666666666,-26.333333333333332,800,-23C883.3333333333334,-19.666666666666668,916.6666666666666,46.708333333333336,1000,49C1083.3333333333333,51.291666666666664,1116.6666666666667,-9.916666666666666,1200,-12C1283.3333333333333,-14.083333333333334,1316.6666666666667,39,1400,39C1483.3333333333333,39,1516.6666666666667,-14.916666666666668,1600,-12C1683.3333333333333,-9.083333333333332,1716.6666666666667,51.541666666666664,1800,53C1883.3333333333333,54.458333333333336,1916.6666666666667,-2.083333333333333,2000,-5C2083.3333333333335,-7.916666666666667,2118.75,35.875,2200,39C2281.25,42.125,2296.25,-65.20833333333333,2390,10C2483.75,85.20833333333333,3252.0833333333335,214.58333333333331,2650,400C2047.9166666666665,585.4166666666667,156.25,795.8333333333334,-500,900" transform="matrix(1,0,0,1,0,140)" opacity="0.53"></path><path d="M-10,10C33.75,15.833333333333334,114.58333333333334,45.5,200,38C285.41666666666663,30.5,316.66666666666663,-24.958333333333332,400,-26C483.33333333333337,-27.041666666666668,516.6666666666666,32.375,600,33C683.3333333333334,33.625,716.6666666666666,-26.333333333333332,800,-23C883.3333333333334,-19.666666666666668,916.6666666666666,46.708333333333336,1000,49C1083.3333333333333,51.291666666666664,1116.6666666666667,-9.916666666666666,1200,-12C1283.3333333333333,-14.083333333333334,1316.6666666666667,39,1400,39C1483.3333333333333,39,1516.6666666666667,-14.916666666666668,1600,-12C1683.3333333333333,-9.083333333333332,1716.6666666666667,51.541666666666664,1800,53C1883.3333333333333,54.458333333333336,1916.6666666666667,-2.083333333333333,2000,-5C2083.3333333333335,-7.916666666666667,2118.75,35.875,2200,39C2281.25,42.125,2296.25,-65.20833333333333,2390,10C2483.75,85.20833333333333,3252.0833333333335,214.58333333333331,2650,400C2047.9166666666665,585.4166666666667,156.25,795.8333333333334,-500,900" transform="matrix(1,0,0,1,0,175)" opacity="0.68"></path><path d="M-10,10C33.75,15.833333333333334,114.58333333333334,45.5,200,38C285.41666666666663,30.5,316.66666666666663,-24.958333333333332,400,-26C483.33333333333337,-27.041666666666668,516.6666666666666,32.375,600,33C683.3333333333334,33.625,716.6666666666666,-26.333333333333332,800,-23C883.3333333333334,-19.666666666666668,916.6666666666666,46.708333333333336,1000,49C1083.3333333333333,51.291666666666664,1116.6666666666667,-9.916666666666666,1200,-12C1283.3333333333333,-14.083333333333334,1316.6666666666667,39,1400,39C1483.3333333333333,39,1516.6666666666667,-14.916666666666668,1600,-12C1683.3333333333333,-9.083333333333332,1716.6666666666667,51.541666666666664,1800,53C1883.3333333333333,54.458333333333336,1916.6666666666667,-2.083333333333333,2000,-5C2083.3333333333335,-7.916666666666667,2118.75,35.875,2200,39C2281.25,42.125,2296.25,-65.20833333333333,2390,10C2483.75,85.20833333333333,3252.0833333333335,214.58333333333331,2650,400C2047.9166666666665,585.4166666666667,156.25,795.8333333333334,-500,900" transform="matrix(1,0,0,1,0,210)" opacity="0.84"></path><path d="M-10,10C33.75,15.833333333333334,114.58333333333334,45.5,200,38C285.41666666666663,30.5,316.66666666666663,-24.958333333333332,400,-26C483.33333333333337,-27.041666666666668,516.6666666666666,32.375,600,33C683.3333333333334,33.625,716.6666666666666,-26.333333333333332,800,-23C883.3333333333334,-19.666666666666668,916.6666666666666,46.708333333333336,1000,49C1083.3333333333333,51.291666666666664,1116.6666666666667,-9.916666666666666,1200,-12C1283.3333333333333,-14.083333333333334,1316.6666666666667,39,1400,39C1483.3333333333333,39,1516.6666666666667,-14.916666666666668,1600,-12C1683.3333333333333,-9.083333333333332,1716.6666666666667,51.541666666666664,1800,53C1883.3333333333333,54.458333333333336,1916.6666666666667,-2.083333333333333,2000,-5C2083.3333333333335,-7.916666666666667,2118.75,35.875,2200,39C2281.25,42.125,2296.25,-65.20833333333333,2390,10C2483.75,85.20833333333333,3252.0833333333335,214.58333333333331,2650,400C2047.9166666666665,585.4166666666667,156.25,795.8333333333334,-500,900" transform="matrix(1,0,0,1,0,245)" opacity="1"></path></g></svg>